HIERARCHY
ROOT hip
{
  OFFSET 55.1207 81.6025 47.4145
  CHANNELS 6 Xposition Yposition Zposition Zrotation Xrotation Yrotation
  JOINT abdomen
  {
    OFFSET 0 20.6881 -0.73152
    CHANNELS 3 Zrotation Xrotation Yrotation
    JOINT chest
    {
      OFFSET 0 11.7043 -0.48768
      CHANNELS 3 Zrotation Xrotation Yrotation
      JOINT neck
      {
        OFFSET 0 22.1894 -2.19456
        CHANNELS 3 Zrotation Xrotation Yrotation
        JOINT head
        {
          OFFSET -0.24384 7.07133 1.2192
          CHANNELS 3 Zrotation Xrotation Yrotation
          JOINT leftEye
          {
            OFFSET 4.14528 8.04674 8.04672
            CHANNELS 3 Zrotation Xrotation Yrotation
            End Site
            {
              OFFSET 1 0 0
            }
          }
          JOINT rightEye
          {
            OFFSET -3.6576 8.04674 8.04672
            CHANNELS 3 Zrotation Xrotation Yrotation
            End Site
            {
              OFFSET 1 0 0
            }
          }
        }
      }
      JOINT rCollar
      {
        OFFSET -2.68224 19.2634 -4.8768
        CHANNELS 3 Zrotation Xrotation Yrotation
        JOINT rShldr
        {
          OFFSET -8.77824 -1.95073 1.46304
          CHANNELS 3 Zrotation Xrotation Yrotation
          JOINT rForeArm
          {
            OFFSET -28.1742 -1.7115 0.48768
            CHANNELS 3 Zrotation Xrotation Yrotation
            JOINT rHand
            {
              OFFSET -22.5879 0.773209 7.07136
              CHANNELS 3 Zrotation Xrotation Yrotation
              JOINT rThumb1
              {
                OFFSET -1.2192 -0.487915 3.41376
                CHANNELS 3 Zrotation Xrotation Yrotation
                JOINT rThumb2
                {
                  OFFSET -3.37035 -0.52449 3.41376
                  CHANNELS 3 Zrotation Xrotation Yrotation
                  End Site
                  {
                    OFFSET -1.78271 -1.18214 1.43049
                  }
                }
              }
              JOINT rIndex1
              {
                OFFSET -7.75947 0.938293 5.60832
                CHANNELS 3 Zrotation Xrotation Yrotation
                JOINT rIndex2
                {
                  OFFSET -2.54057 -0.884171 1.56538
                  CHANNELS 3 Zrotation Xrotation Yrotation
                  End Site
                  {
                    OFFSET -1.62519 -0.234802 1.16502
                  }
                }
              }
              JOINT rMid1
              {
                OFFSET -8.24714 1.18213 3.41376
                CHANNELS 3 Zrotation Xrotation Yrotation
                JOINT rMid2
                {
                  OFFSET -3.10165 -0.590103 1.0647
                  CHANNELS 3 Zrotation Xrotation Yrotation
                  End Site
                  {
                    OFFSET -2.48547 -0.328903 0.83742
                  }
                }
              }
              JOINT rRing1
              {
                OFFSET -8.82822 0.546677 1.51678
                CHANNELS 3 Zrotation Xrotation Yrotation
                JOINT rRing2
                {
                  OFFSET -2.60934 -0.819778 -0.0198488
                  CHANNELS 3 Zrotation Xrotation Yrotation
                  End Site
                  {
                    OFFSET -2.33842 -0.294052 0.168128
                  }
                }
              }
              JOINT rPinky1
              {
                OFFSET -8.27202 -0.0477905 -0.4584
                CHANNELS 3 Zrotation Xrotation Yrotation
                JOINT rPinky2
                {
                  OFFSET -1.82734 -0.647385 -0.700984
                  CHANNELS 3 Zrotation Xrotation Yrotation
                  End Site
                  {
                    OFFSET -1.69225 -0.51767 -0.607171
                  }
                }
              }
            }
          }
        }
      }
      JOINT lCollar
      {
        OFFSET 2.68224 19.2634 -4.8768
        CHANNELS 3 Zrotation Xrotation Yrotation
        JOINT lShldr
        {
          OFFSET 8.77824 -1.95073 1.46304
          CHANNELS 3 Zrotation Xrotation Yrotation
          JOINT lForeArm
          {
            OFFSET 28.1742 -1.7115 0.48768
            CHANNELS 3 Zrotation Xrotation Yrotation
            JOINT lHand
            {
              OFFSET 22.5879 0.773209 7.07136
              CHANNELS 3 Zrotation Xrotation Yrotation
              JOINT lThumb1
              {
                OFFSET 1.2192 -0.487915 3.41376
                CHANNELS 3 Zrotation Xrotation Yrotation
                JOINT lThumb2
                {
                  OFFSET 3.37035 -0.52449 3.41376
                  CHANNELS 3 Zrotation Xrotation Yrotation
                  End Site
                  {
                    OFFSET 1.78271 -1.18214 1.43049
                  }
                }
              }
              JOINT lIndex1
              {
                OFFSET 7.75947 0.938293 5.60832
                CHANNELS 3 Zrotation Xrotation Yrotation
                JOINT lIndex2
                {
                  OFFSET 2.54057 -0.884171 1.56538
                  CHANNELS 3 Zrotation Xrotation Yrotation
                  End Site
                  {
                    OFFSET 1.62519 -0.234802 1.16502
                  }
                }
              }
              JOINT lMid1
              {
                OFFSET 8.24714 1.18213 3.41376
                CHANNELS 3 Zrotation Xrotation Yrotation
                JOINT lMid2
                {
                  OFFSET 3.10165 -0.590103 1.0647
                  CHANNELS 3 Zrotation Xrotation Yrotation
                  End Site
                  {
                    OFFSET 2.48547 -0.328903 0.83742
                  }
                }
              }
              JOINT lRing1
              {
                OFFSET 8.82822 0.546677 1.51678
                CHANNELS 3 Zrotation Xrotation Yrotation
                JOINT lRing2
                {
                  OFFSET 2.60934 -0.819778 -0.0198488
                  CHANNELS 3 Zrotation Xrotation Yrotation
                  End Site
                  {
                    OFFSET 2.33842 -0.294052 0.168128
                  }
                }
              }
              JOINT lPinky1
              {
                OFFSET 8.27202 -0.0477905 -0.4584
                CHANNELS 3 Zrotation Xrotation Yrotation
                JOINT lPinky2
                {
                  OFFSET 1.82734 -0.647385 -0.700984
                  CHANNELS 3 Zrotation Xrotation Yrotation
                  End Site
                  {
                    OFFSET 1.69225 -0.51767 -0.607171
                  }
                }
              }
            }
          }
        }
      }
    }
  }
  JOINT rButtock
  {
    OFFSET -8.77824 4.35084 1.2192
    CHANNELS 3 Zrotation Xrotation Yrotation
    JOINT rThigh
    {
      OFFSET 0 -1.70687 -2.19456
      CHANNELS 3 Zrotation Xrotation Yrotation
      JOINT rShin
      {
        OFFSET 0 -36.8199 0.73152
        CHANNELS 3 Zrotation Xrotation Yrotation
        JOINT rFoot
        {
          OFFSET 0.73152 -45.1104 -5.12064
          CHANNELS 3 Zrotation Xrotation Yrotation
          End Site
          {
            OFFSET -1.1221 -3.69964 12.103
          }
        }
      }
    }
  }
  JOINT lButtock
  {
    OFFSET 8.77824 4.35084 1.2192
    CHANNELS 3 Zrotation Xrotation Yrotation
    JOINT lThigh
    {
      OFFSET 0 -1.70687 -2.19456
      CHANNELS 3 Zrotation Xrotation Yrotation
      JOINT lShin
      {
        OFFSET 0 -36.8199 0.73152
        CHANNELS 3 Zrotation Xrotation Yrotation
        JOINT lFoot
        {
          OFFSET -0.73152 -45.1104 -5.12064
          CHANNELS 3 Zrotation Xrotation Yrotation
          End Site
          {
            OFFSET 1.1221 -3.69964 12.103
          }
        }
      }
    }
  }
}
MOTION
Frames:	7
Frame Time:	0.00833333
-58.7924 85.0114 -164.473 -0.0194632 1.35388e-005 0.000335387 0.0256067 -6.19295e-006 0.000728849 0.00706488 8.62967e-006 0.00122384 -4.54411e-016 0 2.71776e-018 -1.36664e-015 3.18055e-015 7.76503e-018 -0 0 0 -0 0 0 -1.50422e-016 -3.88251e-019 1.98785e-016 -3.20472e-015 -3.29237e-016 7.95139e-016 -8.3738e-014 2.14687e-014 2.8625e-014 -9.33834e-013 -3.66509e-014 -2.8625e-014 -2.20799e-012 -2.77363e-014 9.54166e-015 -3.82382e-012 -4.45278e-014 1.66979e-014 -2.20293e-012 -2.5842e-014 0 7.73091 5.47488 0.417314 -2.21009e-012 -2.76311e-014 6.36111e-015 2.90554 0.965183 0.102902 -2.20526e-012 -2.76311e-014 1.03368e-014 10.2786 0.731801 0.0259123 -2.21466e-012 -2.50469e-014 1.90833e-014 2.22167 -0.733487 -0.20892 -3.46554e-016 -5.82377e-019 -1.98785e-016 -6.33801e-015 -2.23633e-016 -7.95139e-016 -8.1949e-014 -2.62396e-014 -1.59028e-014 -9.37941e-013 1.60519e-014 2.54444e-014 -2.20815e-012 -2.07792e-014 2.22639e-014 -3.80792e-012 -4.13472e-014 1.90833e-014 -2.21247e-012 -2.06736e-014 2.22639e-014 -7.73091 5.47488 -0.417314 -2.20716e-012 -2.10712e-014 6.36111e-015 -2.90554 0.965183 -0.102902 -2.21055e-012 -2.05742e-014 1.27222e-014 -10.2786 0.731801 -0.0259123 -2.20094e-012 -1.78906e-014 3.18055e-015 -2.22167 -0.733487 0.20892 -2.03217e-016 0 -3.88251e-019 0.512296 -3.13364 -0.0420884 -0.00562799 0.123101 -0.0495522 -0.492795 3.00963 0.117359 2.03217e-016 0 3.88251e-019 -0.473329 -3.03453 0.0397105 0.00592201 -0.0564357 0.0521752 0.492509 3.09005 -0.118956 
-59.4031 81.5757 -164.855 -0.746692 0.585515 -1.27345 1.00453 2.87091 -0.0342713 1.28117 -1.43885 0.139832 -2.67972 -0.759035 -0.597835 3.05788 -3.05511 -0.00730818 -0 0 0 -0 0 0 -5.80191e-015 2.66201e-014 5.54539e-014 21.3654 14.0328 0.360306 -28.9469 -26.1435 12.8456 0.0079446 -2.02635 -0.284206 -1.22209e-010 -7.24697e-010 1.35785e-010 -2.12463e-010 -1.25982e-009 2.34164e-010 -1.22204e-010 -7.24701e-010 1.35777e-010 7.73091 5.47488 0.417314 -1.2221e-010 -7.24694e-010 1.35783e-010 2.90554 0.965183 0.102902 -1.22204e-010 -7.24694e-010 1.35785e-010 10.2786 0.731801 0.0259123 -1.22215e-010 -7.24695e-010 1.35795e-010 2.22167 -0.733487 -0.20892 -5.98344e-015 2.66161e-014 5.507e-014 -22.4298 11.7649 1.70776 23.9533 -21.8116 -14.6937 -0.0689001 -5.82961 0.804074 -1.94141e-010 -4.77019e-009 -4.00649e-010 -3.29606e-010 -8.24832e-009 -6.94914e-010 -1.94145e-010 -4.7702e-009 -4.00651e-010 -7.73091 5.47488 -0.417314 -1.9414e-010 -4.7702e-009 -4.00663e-010 -2.90554 0.965183 -0.102902 -1.94145e-010 -4.7702e-009 -4.00659e-010 -10.2786 0.731801 -0.0259123 -1.94134e-010 -4.77019e-009 -4.00669e-010 -2.22167 -0.733487 0.20892 -2.03217e-016 0 -3.88251e-019 3.80376 -7.02647 -0.204626 0.0184058 12.6272 0.127567 -1.04391 -3.02223 -4.13105 2.03217e-016 0 3.88251e-019 2.03757 -11.6779 1.1901 -0.00976239 22.7114 -0.252852 0.317631 4.23396 -1.41827 
-59.4825 81.5596 -162.696 -1.47705 1.19544 -2.61396 2.03109 5.91679 -0.118159 2.65897 -2.96116 0.275249 -5.53732 -1.54349 -1.21208 6.28735 -6.2803 0.0197904 -0 0 0 -0 0 0 -1.22754e-014 5.60112e-014 1.18134e-013 43.7481 28.8545 0.78534 -41.4894 -48.5343 37.4003 -0.00572124 -4.11709 -0.578682 -2.57636e-010 -1.52898e-009 2.80923e-010 -4.47879e-010 -2.65789e-009 4.84408e-010 -2.57632e-010 -1.52899e-009 2.80918e-010 7.73091 5.47488 0.417314 -2.57635e-010 -1.52898e-009 2.80922e-010 2.90554 0.965183 0.102902 -2.57629e-010 -1.52898e-009 2.80923e-010 10.2786 0.731801 0.0259123 -2.57641e-010 -1.52898e-009 2.80935e-010 2.22167 -0.733487 -0.20892 -1.2443e-014 5.60032e-014 1.17764e-013 -46.9679 24.1493 3.72571 34.5841 -39.5957 -37.5718 0.0396892 -11.9731 1.68009 -4.08652e-010 -1.00252e-008 -8.39504e-010 -6.93901e-010 -1.7336e-008 -1.45611e-009 -4.08656e-010 -1.00253e-008 -8.39508e-010 -7.73091 5.47488 -0.417314 -4.0865e-010 -1.00253e-008 -8.39515e-010 -2.90554 0.965183 -0.102902 -4.08658e-010 -1.00253e-008 -8.39513e-010 -10.2786 0.731801 -0.0259123 -4.08644e-010 -1.00252e-008 -8.39524e-010 -2.22167 -0.733487 0.20892 -2.03217e-016 0 -3.88251e-019 7.25681 -11.2566 -0.394393 -0.0505425 25.9138 0.340278 -2.61937 -9.36348 -8.74821 2.03217e-016 0 3.88251e-019 5.09111 -20.719 2.49833 0.345239 46.8505 -0.783087 0.18868 5.47295 -2.80166 
-59.5878 81.4962 -160.59 -2.12308 1.75305 -3.82262 2.97301 8.61273 -0.10533 3.85033 -4.31647 0.418101 -8.08671 -2.27611 -1.79477 9.17127 -9.16533 -0.0221765 -0 0 0 -0 0 0 -1.71049e-014 7.9861e-014 1.65964e-013 63.411 42.0905 1.41319 -31.0527 -54.2582 76.0643 -0.0367622 -6.07845 -0.856901 -3.62211e-010 -2.17403e-009 4.07336e-010 -6.2974e-010 -3.77937e-009 7.02458e-010 -3.62207e-010 -2.17405e-009 4.07332e-010 7.73091 5.47488 0.417314 -3.6221e-010 -2.17403e-009 4.07336e-010 2.90554 0.965183 0.102902 -3.62203e-010 -2.17403e-009 4.07335e-010 10.2786 0.731801 0.0259123 -3.62216e-010 -2.17404e-009 4.07348e-010 2.22167 -0.733487 -0.20892 -1.72572e-014 7.98495e-014 1.65607e-013 -69.7879 35.1547 6.13846 30.9826 -44.296 -66.0744 0.30421 -17.4747 2.51593 -5.78007e-010 -1.43105e-008 -1.20199e-009 -9.81202e-010 -2.47449e-008 -2.08478e-009 -5.78011e-010 -1.43106e-008 -1.202e-009 -7.73091 5.47488 -0.417314 -5.78005e-010 -1.43106e-008 -1.202e-009 -2.90554 0.965183 -0.102902 -5.78014e-010 -1.43106e-008 -1.202e-009 -10.2786 0.731801 -0.0259123 -5.77999e-010 -1.43105e-008 -1.20201e-009 -2.22167 -0.733487 0.20892 -2.03217e-016 0 -3.88251e-019 10.3183 -14.8116 -0.543269 -0.214022 37.634 0.596711 -4.87737 -14.7367 -13.0466 2.03217e-016 0 3.88251e-019 8.23093 -28.9155 3.90444 1.68043 68.2335 -2.16883 0.124323 6.50962 -4.03166 
-59.7343 81.5897 -158.499 -2.61099 2.18297 -4.7003 3.67333 10.4338 0.153503 4.56354 -5.25437 0.578728 -9.8363 -2.87989 -2.2976 11.1747 -11.1999 -0.239353 -0 0 0 -0 0 0 -1.78245e-014 8.98573e-014 1.7667e-013 76.6477 51.3644 2.34816 -25.3218 -47.4802 98.7804 -0.0735965 -7.71679 -1.0912 -3.89658e-010 -2.42101e-009 4.86933e-010 -6.77715e-010 -4.20937e-009 8.40022e-010 -3.89655e-010 -2.42103e-009 4.8693e-010 7.73091 5.47488 0.417314 -3.89656e-010 -2.421e-009 4.86933e-010 2.90554 0.965183 0.102902 -3.89649e-010 -2.421e-009 4.86933e-010 10.2786 0.731801 0.0259123 -3.89662e-010 -2.42101e-009 4.86946e-010 2.22167 -0.733487 -0.20892 -1.79579e-014 8.98437e-014 1.76322e-013 -86.5757 42.8232 8.6792 28.1112 -39.7819 -83.5318 0.595831 -21.3849 3.15485 -6.34472e-010 -1.61714e-008 -1.37356e-009 -1.07602e-009 -2.79569e-008 -2.38211e-009 -6.34477e-010 -1.61715e-008 -1.37357e-009 -7.73091 5.47488 -0.417314 -6.3447e-010 -1.61715e-008 -1.37357e-009 -2.90554 0.965183 -0.102902 -6.3448e-010 -1.61715e-008 -1.37357e-009 -10.2786 0.731801 -0.0259123 -6.34465e-010 -1.61715e-008 -1.37358e-009 -2.22167 -0.733487 0.20892 -2.03217e-016 0 -3.88251e-019 12.4615 -16.6797 -0.574536 -0.407323 45.4392 0.85697 -6.82766 -18.0526 -16.0866 2.03217e-016 0 3.88251e-019 10.7864 -35.0397 5.21823 7.33198 82.7072 -7.80882 0.102623 7.05145 -4.86491 
-59.9792 81.6647 -156.561 -2.91806 2.44712 -5.14148 4.00805 11.1138 0.888879 4.58708 -5.6493 0.801752 -10.4014 -3.519 -2.75291 11.8809 -11.9111 -0.832441 -0 0 0 -0 0 0 -1.09471e-014 7.70668e-014 1.27139e-013 81.2391 54.9509 3.49 -25.3173 -43.5233 105.166 -0.104985 -9.03538 -1.28081 -2.77685e-010 -2.007e-009 4.98669e-010 -4.83835e-010 -3.4918e-009 8.61119e-010 -2.77682e-010 -2.00702e-009 4.98666e-010 7.73091 5.47488 0.417314 -2.77683e-010 -2.007e-009 4.98669e-010 2.90554 0.965183 0.102902 -2.77676e-010 -2.007e-009 4.9867e-010 10.2786 0.731801 0.0259123 -2.77688e-010 -2.00701e-009 4.98683e-010 2.22167 -0.733487 -0.20892 -1.10526e-014 7.70532e-014 1.2679e-013 -93.5541 46.0781 10.4008 28.0436 -36.7624 -88.7141 0.748849 -23.1039 3.44973 -5.09287e-010 -1.4244e-008 -1.23909e-009 -8.61062e-010 -2.46122e-008 -2.14834e-009 -5.09293e-010 -1.4244e-008 -1.2391e-009 -7.73091 5.47488 -0.417314 -5.09287e-010 -1.4244e-008 -1.2391e-009 -2.90554 0.965183 -0.102902 -5.09297e-010 -1.4244e-008 -1.2391e-009 -10.2786 0.731801 -0.0259123 -5.09281e-010 -1.4244e-008 -1.23911e-009 -2.22167 -0.733487 0.20892 -2.03217e-016 0 -3.88251e-019 13.381 -16.1643 -0.420166 -0.487379 47.7706 1.01256 -7.49601 -18.8659 -17.1392 2.03217e-016 0 3.88251e-019 12.1847 -38.386 6.22843 25.3011 87.5733 -25.7814 0.0957038 6.97244 -5.21402 
-60.0889 81.8672 -154.482 -3.10133 2.59307 -5.26924 4.0952 10.9718 1.95609 4.11606 -5.65436 1.06722 -10.1252 -4.17289 -3.17155 11.6769 -11.6817 -1.68512 -0 0 0 -0 0 0 1.26885e-015 4.81617e-014 3.49768e-014 79.95 54.4821 4.52138 -24.9683 -44.4134 105.685 -0.13025 -10.1193 -1.43742 -6.76228e-011 -1.12581e-009 4.62043e-010 -1.19791e-010 -1.96307e-009 7.99206e-010 -6.762e-011 -1.12581e-009 4.6204e-010 7.73091 5.47488 0.417314 -6.76213e-011 -1.1258e-009 4.62041e-010 2.90554 0.965183 0.102902 -6.76142e-011 -1.1258e-009 4.62046e-010 10.2786 0.731801 0.0259123 -6.76252e-011 -1.12581e-009 4.62058e-010 2.22167 -0.733487 -0.20892 1.19747e-015 4.81494e-014 3.46196e-014 -93.0376 46.2279 11.1419 27.9987 -37.2338 -88.419 0.75467 -23.2597 3.47459 -2.55477e-010 -9.62935e-009 -8.87867e-010 -4.26762e-010 -1.66166e-008 -1.5384e-009 -2.55483e-010 -9.62936e-009 -8.87866e-010 -7.73091 5.47488 -0.417314 -2.55478e-010 -9.62936e-009 -8.87871e-010 -2.90554 0.965183 -0.102902 -2.55487e-010 -9.62938e-009 -8.87873e-010 -10.2786 0.731801 -0.0259123 -2.55472e-010 -9.62936e-009 -8.87875e-010 -2.22167 -0.733487 0.20892 -2.03217e-016 0 -3.88251e-019 13.4073 -13.947 -0.138653 -0.429372 46.1925 1.04625 -7.06474 -17.9525 -16.6919 2.03217e-016 0 3.88251e-019 12.6026 -39.7547 6.9106 14.3092 85.9384 -14.8257 0.090973 6.44827 -5.21276 
